<svg width="48" height="48" fill="none" xmlns="http://www.w3.org/2000/svg"><path d="m22 12-1.828-1.828A4 4 0 0 0 17.343 9H5.5A2.5 2.5 0 0 0 3 11.5v25A2.5 2.5 0 0 0 5.5 39h37a2.5 2.5 0 0 0 2.5-2.5v-22a2.5 2.5 0 0 0-2.5-2.5H22z" fill="#FFB900"/><path d="m22 12-1.975 1.975A3.5 3.5 0 0 1 17.55 15H3v21.5A2.5 2.5 0 0 0 5.5 39h37a2.5 2.5 0 0 0 2.5-2.5v-22a2.5 2.5 0 0 0-2.5-2.5H22z" fill="#FFD75E"/><path d="m22 12-1.828 1.828A4 4 0 0 1 17.343 15H3v21.5A2.5 2.5 0 0 0 5.5 39h37a2.5 2.5 0 0 0 2.5-2.5v-22a2.5 2.5 0 0 0-2.5-2.5H22z" fill="url(#a)"/><path opacity=".4" d="m22 12-1.828 1.828A4 4 0 0 1 17.343 15H3v1h14.636a4.5 4.5 0 0 0 3.182-1.318L23.5 12H22z" fill="#fff"/><path d="M5 38a2.97 2.97 0 0 1-1.84-.648A2.493 2.493 0 0 0 5.5 39h37c1.08 0 1.991-.69 2.34-1.648A2.97 2.97 0 0 1 43 38H5z" fill="#BF5712"/><defs><linearGradient id="a" x1="3" y1="12" x2="3" y2="39" gradientUnits="userSpaceOnUse"><stop stop-color="#fff" stop-opacity=".01"/><stop offset=".999" stop-color="#FFD75E" stop-opacity=".3"/></linearGradient></defs></svg>